# xmcd
# 
# Track frame offsets:
#     182
#     38647
#     63805
#     92365
#     123940
#     140645
#     172695
#     219422
#     244090
#     273515
# 
# Disc length: 4311
# 
# Revision: 56
# Processed by: cddbd v1.5.2PL0 Copyright (c) Steve Scherf et al.
# Submitted via: fre:ac v1.0.31
# 
DISCID=7e10d50a
DTITLE=Led Zeppelin - Led Zeppelin [CD3]
DYEAR=1990
DGENRE=Hard Rock
TTITLE0=Kashmir
TTITLE1=Trampled Under Foot
TTITLE2=For Your Life
TTITLE3=No Quarter
TTITLE4=Dancing Days
TTITLE5=When The Levee Breaks
TTITLE6=Achilles Last Stand
TTITLE7=The Song Remains The Same
TTITLE8=Ten Years Gone
TTITLE9=In My Time Of Dying
EXTD=
EXTT0=
EXTT1=
EXTT2=
EXTT3=
EXTT4=
EXTT5=
EXTT6=
EXTT7=
EXTT8=
EXTT9=
PLAYORDER=
